<?xml version="1.0" standalone="no"?>
<!DOCTYPE svg PUBLIC "-//W3C//DTD SVG 20010904//EN"
 "http://www.w3.org/TR/2001/REC-SVG-20010904/DTD/svg10.dtd">
<svg version="1.0" xmlns="http://www.w3.org/2000/svg"
 width="1024.000000pt" height="1024.000000pt" viewBox="0 0 1024.000000 1024.000000"
 preserveAspectRatio="xMidYMid meet">

<g transform="translate(0.000000,1024.000000) scale(0.100000,-0.100000)"
fill="#000000" stroke="none">
<path d="M4814 8840 c-137 -11 -327 -44 -492 -85 -698 -172 -1329 -599 -1772
-1200 -320 -435 -529 -984 -580 -1530 -6 -68 -10 -541 -10 -1237 l0 -1128
3120 0 3121 0 -4 1188 c-4 1255 -2 1214 -53 1476 -119 612 -423 1180 -864
1615 -297 293 -627 515 -995 670 -258 109 -488 171 -805 217 -124 18 -519 26
-666 14z m701 -149 c646 -95 1236 -397 1701 -873 127 -129 152 -158 250 -288
301 -398 503 -883 576 -1380 22 -152 22 -174 26 -1257 l3 -1103 -2991 0 -2990
0 0 1058 c0 1102 3 1178 45 1423 66 379 233 784 466 1130 129 193 362 452 549
611 388 329 874 562 1370 656 91 18 144 25 330 46 19 2 143 3 275 1 183 -2
275 -8 390 -24z"/>
<path d="M4815 8284 c-565 -60 -1125 -326 -1530 -729 -207 -206 -371 -428
-491 -667 -131 -260 -193 -450 -251 -768 -22 -118 -31 -1116 -11 -1142 22 -28
63 -33 86 -10 19 19 20 37 25 499 4 423 6 493 25 610 40 254 113 484 227 718
69 141 219 385 237 385 4 0 9 -444 10 -987 l3 -988 28 -13 c22 -11 32 -11 55
0 l27 13 3 978 2 977 250 0 250 0 2 -696 3 -696 24 -20 c28 -22 68 -18 89 9 9
13 12 171 12 710 l0 693 250 0 250 0 0 -473 c0 -446 1 -475 18 -490 25 -23 64
-21 90 3 l22 21 0 469 0 470 245 0 245 0 0 -195 0 -194 -122 -3 c-119 -3 -123
-4 -137 -29 -12 -22 -12 -29 0 -55 l14 -29 123 -3 122 -3 0 -164 c0 -152 2
-167 20 -185 20 -20 65 -26 87 -12 26 16 34 66 28 178 -3 63 -3 130 1 149 l6
35 244 0 244 0 0 -219 c0 -216 0 -220 22 -235 28 -20 58 -20 84 -2 18 13 19
30 22 235 l3 221 247 -2 247 -3 5 -437 c3 -301 8 -440 16 -448 17 -17 73 -15
91 2 13 14 15 67 14 419 -1 222 2 418 5 436 l6 33 244 0 244 0 0 -710 c0 -697
0 -710 20 -730 11 -11 32 -20 48 -20 61 0 57 -47 62 737 l5 718 153 3 153 3
19 -43 c34 -78 108 -351 129 -478 32 -188 39 -327 37 -753 l-1 -389 24 -19
c30 -24 56 -24 81 1 19 19 20 33 20 478 -1 493 -7 583 -55 817 -155 752 -659
1405 -1361 1760 -169 86 -356 156 -519 195 -228 55 -292 62 -580 65 -148 1
-288 1 -310 -1z m195 -554 l0 -440 -245 0 -245 0 0 404 c0 223 3 407 8 409 21
13 337 58 460 66 l22 1 0 -440z m390 414 c63 -8 142 -20 175 -27 l60 -13 3
-407 2 -407 -247 2 -248 3 -2 390 c-1 215 0 411 3 437 l6 47 66 -5 c37 -3 119
-12 182 -20z m-1010 -469 l0 -385 -250 0 -250 0 0 283 0 284 131 63 c120 58
326 138 357 139 9 1 12 -82 12 -384z m1491 356 c98 -33 248 -99 331 -144 l58
-32 -3 -540 -2 -540 -247 -3 -248 -2 0 195 0 195 122 0 c111 0 124 2 145 22
28 27 29 48 2 82 -20 26 -22 26 -145 26 l-124 0 0 385 c0 311 3 385 13 385 7
0 51 -13 98 -29z m-2121 -501 l0 -240 -250 0 -250 0 0 28 c0 46 222 259 414
396 43 31 80 56 82 56 2 0 4 -108 4 -240z m2765 157 c60 -45 167 -138 237
-206 l128 -123 0 -294 0 -294 -247 2 -248 3 0 498 c0 334 3 497 10 497 5 0 59
-37 120 -83z m579 -609 c77 -117 166 -274 166 -295 0 -10 -32 -13 -125 -13
l-125 0 0 210 c0 116 2 210 5 210 2 0 38 -51 79 -112z m-1466 -110 l-3 -193
-241 -3 -242 -2 -5 27 c-3 16 -3 103 0 196 l6 167 244 0 243 0 -2 -192z"/>
<path d="M4655 5165 c-602 -49 -1171 -181 -1633 -380 -393 -170 -520 -367
-347 -539 39 -40 177 -110 245 -125 59 -14 4216 -15 4286 -2 126 24 262 101
315 178 110 159 -19 328 -365 481 -110 49 -440 162 -613 211 -244 69 -607 137
-883 166 -217 22 -782 28 -1005 10z m175 -197 c0 -143 31 -221 119 -300 80
-72 180 -111 244 -94 35 8 40 51 16 133 -37 125 -56 207 -63 276 l-7 67 163 0
c90 0 187 -3 216 -6 l52 -7 0 -51 c1 -85 27 -203 55 -251 53 -91 145 -157 259
-186 33 -8 49 -8 66 1 21 11 22 17 17 74 -3 33 -17 101 -31 151 -15 49 -29
122 -33 162 l-6 73 34 -1 c19 0 97 -8 174 -17 l140 -17 7 -84 c8 -103 27 -158
73 -221 58 -80 192 -154 268 -148 64 5 68 30 28 172 -18 64 -35 140 -38 170
l-6 55 69 -16 c210 -47 459 -134 615 -214 138 -72 240 -171 258 -251 21 -92
-63 -190 -220 -256 l-64 -27 -2165 0 -2165 0 -76 36 c-173 83 -232 190 -165
303 32 54 118 126 219 183 129 72 435 184 595 218 32 7 32 6 32 -34 0 -106 42
-213 110 -281 79 -80 236 -142 276 -109 21 18 15 86 -20 200 -43 144 -60 289
-32 289 7 0 73 9 146 20 73 11 140 20 150 20 14 0 19 -16 28 -91 14 -111 43
-179 106 -241 52 -52 149 -104 212 -114 81 -12 93 41 44 200 -31 102 -58 261
-46 274 7 7 143 16 284 20 l62 2 0 -82z"/>
<path d="M4795 3396 c-218 -70 -381 -264 -441 -521 -23 -101 -21 -279 5 -376
62 -238 234 -409 459 -455 114 -24 269 -16 343 18 149 68 247 230 265 437 6
69 4 83 -7 79 -9 -3 -16 -28 -20 -75 -18 -194 -113 -355 -244 -414 -65 -29
-164 -42 -228 -30 -204 37 -300 224 -314 606 -17 471 102 727 336 727 142 -1
252 -75 330 -222 32 -59 75 -203 86 -282 3 -27 10 -48 16 -48 5 0 9 116 9 290
0 181 -4 290 -10 290 -5 0 -30 -36 -56 -80 -47 -83 -53 -86 -86 -44 -27 34
-122 93 -175 109 -72 22 -185 18 -268 -9z"/>
<path d="M7505 3406 c-112 -36 -201 -111 -250 -211 -26 -54 -29 -70 -30 -165
0 -123 16 -169 83 -236 61 -60 139 -97 317 -149 310 -91 368 -120 423 -214 23
-39 27 -57 26 -121 0 -85 -14 -119 -71 -176 -89 -89 -255 -105 -403 -38 -116
52 -227 210 -266 380 -22 93 -22 94 -34 94 -7 0 -10 -90 -10 -265 0 -147 4
-265 9 -265 5 0 17 12 27 28 30 46 78 102 89 102 6 0 37 -20 70 -45 99 -75
148 -89 300 -90 126 0 132 1 195 32 80 39 147 104 191 186 34 62 34 63 34 197
0 124 -2 139 -26 190 -54 115 -137 166 -374 230 -299 81 -365 110 -418 186
-80 114 -21 267 123 319 112 40 265 16 354 -54 84 -67 151 -173 185 -292 10
-35 22 -64 27 -64 5 0 10 100 12 228 1 125 -2 227 -6 227 -5 0 -32 -27 -61
-60 -29 -33 -57 -60 -62 -60 -6 0 -36 18 -67 40 -75 54 -162 80 -266 79 -44 0
-99 -6 -121 -13z"/>
<path d="M1995 3389 c-4 -6 -5 -11 -4 -13 2 -1 57 -8 123 -14 85 -8 124 -16
137 -28 18 -16 19 -43 19 -615 0 -509 -2 -600 -15 -612 -15 -16 -53 -23 -182
-33 -186 -15 -61 -24 327 -24 391 0 514 9 322 24 -114 9 -163 21 -179 42 -10
14 -13 92 -13 326 l0 308 154 0 c275 0 285 -10 296 -330 8 -216 14 -250 55
-311 38 -58 93 -82 175 -77 123 7 165 66 165 235 0 113 -18 106 -26 -9 -9
-125 -28 -168 -75 -168 -36 0 -44 29 -54 185 -5 79 -15 166 -21 192 -19 75
-63 155 -112 200 -50 47 -76 62 -131 78 l-39 12 69 17 c148 37 235 96 280 191
86 180 -57 376 -306 421 -96 17 -955 20 -965 3z m911 -50 c99 -49 148 -179
125 -329 -14 -88 -39 -138 -87 -179 -50 -40 -107 -51 -274 -51 l-140 0 0 264
c0 145 3 272 6 281 14 35 62 46 195 42 109 -3 133 -7 175 -28z"/>
<path d="M3463 3393 c-51 -9 -17 -20 99 -32 85 -8 127 -16 140 -28 17 -15 18
-51 18 -613 0 -686 10 -626 -101 -636 -35 -3 -73 -8 -84 -9 -11 -2 -37 -4 -57
-4 -21 -1 -38 -5 -38 -11 0 -7 143 -10 410 -10 391 0 514 9 322 24 -114 9
-163 21 -179 42 -19 26 -19 1182 0 1208 16 21 65 33 179 42 65 5 88 10 88 20
0 12 -62 14 -387 13 -214 -1 -398 -4 -410 -6z"/>
<path d="M5510 3387 c0 -10 32 -17 111 -25 66 -7 122 -18 135 -27 l24 -15 0
-600 0 -600 -24 -15 c-14 -10 -69 -20 -140 -27 -74 -7 -115 -15 -113 -22 2 -6
19 -11 38 -10 19 0 197 1 397 2 199 1 362 6 362 10 0 5 -51 14 -112 20 -95 10
-116 15 -130 33 -16 19 -18 50 -18 325 l0 304 295 0 295 0 0 -308 c0 -286 -1
-310 -18 -325 -16 -14 -148 -36 -224 -37 -10 0 -18 -4 -18 -10 0 -6 140 -10
400 -10 381 0 502 9 313 24 -102 8 -161 20 -177 36 -17 17 -21 1189 -4 1213
17 22 67 34 181 43 57 5 86 11 84 18 -5 15 -799 16 -804 0 -2 -7 36 -15 107
-21 69 -7 120 -17 135 -27 l25 -16 0 -270 0 -270 -295 0 -295 0 0 261 c0 157
4 268 10 279 13 24 60 37 168 46 59 5 82 10 82 20 0 12 -67 14 -395 14 -320 0
-395 -3 -395 -13z"/>
<path d="M2080 1550 l0 -110 81 0 c79 0 82 1 115 34 27 27 34 42 34 73 0 77
-51 113 -160 113 l-70 0 0 -110z m171 64 c33 -30 41 -60 25 -99 -17 -39 -65
-59 -130 -53 l-38 3 1 83 c0 45 0 85 1 88 0 4 27 4 60 2 40 -3 66 -11 81 -24z"/>
<path d="M2440 1550 l0 -110 100 0 c60 0 100 4 100 10 0 6 -35 10 -85 10 l-85
0 0 40 0 40 70 0 c40 0 70 4 70 10 0 6 -30 10 -70 10 l-70 0 0 40 0 40 80 0
c47 0 80 4 80 10 0 6 -38 10 -95 10 l-95 0 0 -110z"/>
<path d="M2770 1550 l0 -110 90 0 c53 0 90 4 90 10 0 6 -32 10 -75 10 l-75 0
0 100 c0 82 -3 100 -15 100 -12 0 -15 -19 -15 -110z"/>
<path d="M3080 1550 c0 -91 3 -110 15 -110 12 0 15 19 15 110 0 91 -3 110 -15
110 -12 0 -15 -19 -15 -110z"/>
<path d="M3302 1640 c-62 -38 -70 -114 -18 -166 31 -31 40 -34 90 -34 62 0 96
12 114 41 16 26 -2 25 -35 -1 -17 -13 -41 -20 -69 -20 -94 0 -137 88 -75 151
37 37 103 41 145 8 37 -29 48 -13 13 17 -37 31 -116 33 -165 4z"/>
<path d="M3640 1550 c0 -91 3 -110 15 -110 12 0 15 19 15 110 0 91 -3 110 -15
110 -12 0 -15 -19 -15 -110z"/>
<path d="M3866 1556 c-31 -58 -56 -108 -56 -111 0 -17 28 0 42 25 16 29 20 30
86 30 68 0 70 -1 82 -30 11 -26 40 -43 40 -22 -1 20 -110 207 -123 210 -10 2
-33 -32 -71 -102z m124 -28 c0 -5 -25 -8 -56 -8 -31 0 -54 3 -52 8 2 4 14 28
28 54 l24 48 28 -48 c15 -26 28 -50 28 -54z"/>
<path d="M4226 1639 c-54 -42 -22 -84 74 -100 35 -5 67 -12 72 -15 12 -8 10
-38 -4 -52 -20 -20 -102 -15 -131 8 -30 24 -37 25 -37 5 0 -40 123 -65 177
-36 62 33 27 111 -50 111 -48 0 -97 20 -97 40 0 42 89 55 134 19 29 -23 42
-20 32 6 -14 38 -127 48 -170 14z"/>
<path d="M4824 1650 c-35 -14 -64 -59 -64 -100 0 -72 62 -116 150 -108 35 4
53 1 61 -8 6 -8 18 -14 27 -14 13 0 12 3 -3 20 -16 18 -16 20 4 46 38 48 22
133 -30 160 -31 15 -111 18 -145 4z m145 -34 c26 -24 34 -64 20 -98 -10 -25
-17 -29 -41 -26 -21 4 -27 1 -26 -11 5 -26 -79 -18 -108 10 -41 38 -30 107 21
138 27 16 111 8 134 -13z"/>
<path d="M5170 1575 c0 -78 2 -88 25 -110 20 -21 34 -25 84 -25 48 0 65 4 87
23 25 22 28 31 32 110 4 76 2 87 -12 87 -13 0 -16 -12 -16 -74 0 -95 -20 -126
-84 -126 -68 0 -86 20 -86 93 0 69 -8 107 -21 107 -5 0 -9 -38 -9 -85z"/>
<path d="M5540 1550 l0 -110 95 0 c57 0 95 4 95 10 0 6 -35 10 -85 10 l-85 0
0 40 0 40 75 0 c96 0 98 18 3 22 l-73 3 -3 38 -3 37 80 0 c47 0 81 4 81 10 0
6 -37 10 -90 10 l-90 0 0 -110z"/>
<path d="M6089 1656 c-8 -9 3 -216 12 -216 5 0 9 42 9 93 l0 92 86 -92 c47
-51 92 -93 100 -93 11 0 14 22 14 110 0 91 -3 110 -15 110 -12 0 -15 -17 -15
-89 l0 -90 -72 77 c-92 97 -107 110 -119 98z"/>
<path d="M6470 1575 c0 -78 2 -88 25 -110 20 -21 34 -25 85 -25 51 0 65 4 85
25 23 22 25 32 25 110 0 47 -4 85 -9 85 -5 0 -11 -36 -13 -81 -3 -70 -6 -83
-27 -100 -30 -24 -92 -25 -119 -1 -17 14 -22 31 -24 96 -2 52 -7 81 -15 84
-10 3 -13 -18 -13 -83z"/>
<path d="M6840 1650 c0 -5 20 -10 45 -10 l45 0 0 -100 c0 -82 3 -100 15 -100
12 0 15 18 15 100 l0 100 49 0 c28 0 53 5 56 10 4 6 -35 10 -109 10 -71 0
-116 -4 -116 -10z"/>
<path d="M7200 1551 c0 -92 3 -111 15 -111 11 0 15 12 15 50 l0 50 53 0 c68 0
97 -19 97 -66 0 -25 4 -34 16 -34 13 0 15 7 11 36 -3 20 -13 44 -21 53 -14 15
-13 19 4 34 24 20 26 46 6 73 -12 16 -29 20 -105 22 l-91 4 0 -111z m161 79
c21 -12 25 -40 7 -58 -7 -7 -39 -12 -75 -12 l-63 0 0 40 0 40 56 0 c30 0 64
-5 75 -10z"/>
<path d="M7550 1550 l0 -110 95 0 c57 0 95 4 95 10 0 6 -33 10 -80 10 l-80 0
0 40 0 40 70 0 c40 0 70 4 70 10 0 6 -30 10 -70 10 l-70 0 0 40 0 40 80 0 c47
0 80 4 80 10 0 6 -38 10 -95 10 l-95 0 0 -110z"/>
<path d="M7890 1550 c0 -67 4 -110 10 -110 6 0 10 38 10 93 l1 92 88 -92 c49
-51 94 -93 100 -93 7 0 11 37 11 110 0 67 -4 110 -10 110 -6 0 -10 -38 -10
-92 l-1 -93 -87 93 c-48 51 -93 93 -99 92 -10 0 -13 -29 -13 -110z"/>
</g>
</svg>
