<svg xmlns="http://www.w3.org/2000/svg" width="2048" height="2048" viewBox="0 0 2048 2048">
  <title>RICHS logo transparent</title>
  <path d="M 881 1746 L 880 1743 L 877 1740 L 872 1738 L 865 1737 L 868 1737 L 875 1739 L 877 1741 L 878 1741 L 880 1744 L 880 1750 L 876 1754 L 872 1756 L 868 1757 L 853 1757 L 846 1754 L 843 1751 L 840 1745 L 842 1751 L 845 1754 L 853 1757 L 869 1757 L 873 1756 L 877 1754 L 880 1751 Z M 1579 1717 L 1580 1757 L 1581 1718 L 1619 1757 L 1621 1757 L 1620 1717 L 1619 1756 L 1605 1742 L 1583 1718 Z M 1219 1717 L 1220 1757 L 1219 1755 L 1219 1734 L 1220 1732 L 1220 1721 L 1221 1718 L 1235 1732 L 1258 1757 L 1260 1757 L 1260 1717 L 1259 1756 L 1221 1717 Z M 1108 1717 L 1108 1757 L 1145 1757 L 1108 1756 L 1109 1737 L 1142 1736 L 1108 1735 L 1109 1717 L 1144 1717 Z M 554 1717 L 554 1757 L 588 1757 L 554 1756 Z M 490 1717 L 490 1757 L 527 1757 L 490 1756 L 491 1737 L 524 1736 L 490 1735 L 491 1717 L 526 1717 Z M 418 1717 L 418 1757 L 443 1757 L 451 1754 L 456 1750 L 460 1742 L 460 1732 L 458 1726 L 454 1721 L 445 1717 Z M 419 1717 L 443 1717 L 451 1720 L 458 1727 L 460 1733 L 460 1740 L 458 1746 L 451 1753 L 445 1756 L 440 1757 L 418 1756 Z M 1548 1717 L 1538 1716 L 1511 1717 L 1512 1736 L 1512 1750 L 1511 1755 L 1512 1757 L 1548 1757 L 1512 1756 L 1513 1737 L 1546 1736 L 1512 1735 L 1513 1717 Z M 1477 1719 L 1472 1717 L 1466 1716 L 1442 1717 L 1442 1757 L 1443 1738 L 1471 1738 L 1476 1740 L 1479 1744 L 1479 1751 L 1480 1752 L 1481 1757 L 1480 1755 L 1480 1747 L 1479 1743 L 1476 1740 L 1473 1739 L 1471 1737 L 1476 1735 L 1480 1730 L 1480 1723 Z M 1443 1717 L 1470 1717 L 1474 1718 L 1478 1721 L 1480 1725 L 1480 1729 L 1479 1731 L 1475 1735 L 1470 1737 L 1442 1736 Z M 1296 1716 L 1295 1744 L 1298 1752 L 1302 1755 L 1308 1757 L 1324 1757 L 1329 1755 L 1333 1751 L 1335 1747 L 1335 1717 L 1335 1745 L 1333 1750 L 1329 1754 L 1325 1756 L 1320 1757 L 1311 1757 L 1306 1756 L 1302 1754 L 1298 1750 L 1296 1746 Z M 1076 1716 L 1076 1745 L 1074 1750 L 1070 1754 L 1066 1756 L 1061 1757 L 1051 1757 L 1047 1756 L 1043 1754 L 1038 1749 L 1037 1746 L 1036 1717 L 1036 1744 L 1039 1752 L 1043 1755 L 1048 1757 L 1064 1757 L 1070 1755 L 1075 1750 L 1076 1747 L 1077 1736 Z M 957 1723 L 954 1727 L 952 1734 L 952 1739 L 954 1746 L 959 1752 L 966 1756 L 970 1757 L 985 1757 L 993 1754 L 1000 1760 L 999 1758 L 998 1758 L 994 1754 L 999 1749 L 1002 1743 L 1002 1731 L 999 1725 L 995 1721 L 990 1718 L 983 1716 L 972 1716 L 967 1717 L 961 1720 Z M 956 1725 L 960 1721 L 968 1717 L 972 1716 L 983 1716 L 987 1717 L 993 1720 L 1000 1727 L 1002 1733 L 1002 1741 L 999 1748 L 994 1753 L 992 1753 L 986 1748 L 987 1750 L 988 1750 L 992 1753 L 990 1755 L 982 1757 L 972 1757 L 965 1755 L 960 1752 L 957 1749 L 953 1741 L 953 1731 Z M 842 1723 L 842 1729 L 843 1731 L 846 1733 L 853 1735 L 857 1735 L 849 1734 L 845 1732 L 842 1728 L 842 1725 L 843 1723 L 847 1719 L 851 1717 L 855 1716 L 865 1716 L 870 1717 L 876 1721 L 879 1727 L 878 1723 L 873 1718 L 867 1716 L 854 1716 L 850 1717 L 844 1720 Z M 786 1716 L 775 1735 L 770 1746 L 768 1748 L 764 1757 L 767 1753 L 767 1751 L 770 1746 L 772 1744 L 800 1744 L 802 1746 L 805 1753 L 808 1757 L 788 1718 Z M 786 1717 L 788 1719 L 800 1742 L 772 1742 Z M 660 1720 L 653 1728 L 651 1736 L 653 1746 L 658 1752 L 665 1756 L 669 1757 L 684 1757 L 693 1753 L 697 1749 L 699 1745 L 699 1743 L 697 1748 L 692 1753 L 685 1756 L 681 1757 L 671 1757 L 667 1756 L 661 1753 L 654 1746 L 652 1742 L 652 1732 L 653 1729 L 661 1720 L 667 1717 L 671 1716 L 682 1716 L 691 1719 L 696 1723 L 696 1724 L 699 1728 L 698 1725 L 693 1720 L 687 1717 L 682 1716 L 671 1716 L 666 1717 Z M 1100 1371 L 1121 1371 L 1143 1374 L 1152 1377 L 1155 1380 L 1156 1383 L 1156 1622 L 1155 1624 L 1150 1629 L 1145 1631 L 1119 1634 L 1099 1634 L 1099 1637 L 1262 1637 L 1262 1634 L 1244 1634 L 1230 1633 L 1218 1631 L 1212 1629 L 1208 1625 L 1207 1623 L 1206 1615 L 1206 1503 L 1208 1501 L 1327 1502 L 1327 1621 L 1326 1625 L 1323 1628 L 1319 1630 L 1311 1632 L 1291 1634 L 1271 1634 L 1271 1637 L 1434 1637 L 1434 1634 L 1413 1634 L 1400 1633 L 1388 1631 L 1383 1629 L 1379 1626 L 1377 1619 L 1377 1387 L 1378 1382 L 1381 1377 L 1389 1374 L 1408 1371 L 1434 1371 L 1434 1368 L 1271 1368 L 1270 1370 L 1291 1371 L 1314 1374 L 1322 1377 L 1326 1381 L 1327 1385 L 1326 1495 L 1321 1496 L 1319 1495 L 1297 1495 L 1291 1496 L 1288 1495 L 1283 1496 L 1278 1496 L 1276 1495 L 1264 1495 L 1262 1496 L 1258 1495 L 1255 1496 L 1253 1495 L 1229 1495 L 1226 1496 L 1225 1495 L 1223 1495 L 1222 1496 L 1208 1496 L 1206 1494 L 1206 1390 L 1208 1380 L 1211 1377 L 1215 1375 L 1222 1373 L 1262 1368 Z M 688 1368 L 688 1371 L 714 1371 L 734 1374 L 740 1376 L 744 1380 L 745 1384 L 745 1621 L 744 1624 L 740 1628 L 734 1631 L 721 1633 L 707 1634 L 688 1634 L 688 1637 L 852 1637 L 852 1634 L 831 1634 L 818 1633 L 803 1630 L 799 1628 L 797 1626 L 795 1619 L 795 1386 L 796 1381 L 799 1377 L 803 1375 L 810 1373 L 827 1371 L 852 1371 L 852 1368 Z M 394 1368 L 395 1371 L 423 1371 L 434 1372 L 444 1374 L 451 1377 L 453 1379 L 455 1387 L 455 1617 L 454 1623 L 452 1627 L 450 1629 L 443 1632 L 421 1634 L 394 1634 L 394 1637 L 563 1637 L 563 1634 L 560 1635 L 522 1634 L 516 1633 L 511 1631 L 506 1626 L 505 1623 L 506 1496 L 559 1496 L 568 1497 L 578 1500 L 586 1505 L 591 1511 L 594 1517 L 596 1528 L 595 1560 L 597 1594 L 598 1602 L 601 1615 L 606 1626 L 613 1633 L 622 1638 L 630 1640 L 649 1640 L 654 1639 L 662 1635 L 668 1629 L 672 1620 L 674 1607 L 674 1578 L 672 1578 L 672 1597 L 671 1607 L 668 1620 L 666 1624 L 660 1630 L 657 1631 L 650 1630 L 645 1625 L 644 1623 L 643 1618 L 643 1590 L 640 1559 L 635 1542 L 630 1531 L 624 1522 L 613 1511 L 609 1508 L 596 1501 L 588 1498 L 581 1497 L 578 1495 L 585 1493 L 590 1493 L 604 1490 L 621 1484 L 629 1480 L 639 1473 L 646 1466 L 651 1459 L 655 1450 L 657 1442 L 658 1430 L 657 1423 L 654 1414 L 650 1407 L 643 1398 L 638 1393 L 628 1385 L 616 1378 L 603 1373 L 584 1369 L 573 1368 Z M 509 1373 L 514 1371 L 560 1371 L 574 1374 L 585 1379 L 588 1381 L 597 1390 L 603 1401 L 607 1417 L 608 1441 L 606 1455 L 603 1464 L 599 1472 L 595 1477 L 588 1483 L 581 1487 L 573 1490 L 556 1493 L 505 1492 L 505 1379 L 507 1375 Z M 1491 1370 L 1478 1377 L 1473 1381 L 1460 1394 L 1455 1401 L 1449 1413 L 1445 1427 L 1444 1435 L 1444 1447 L 1447 1464 L 1453 1478 L 1457 1484 L 1468 1495 L 1474 1499 L 1490 1507 L 1522 1518 L 1536 1521 L 1556 1527 L 1577 1535 L 1589 1541 L 1595 1545 L 1606 1555 L 1611 1562 L 1614 1568 L 1617 1580 L 1617 1593 L 1614 1604 L 1607 1616 L 1599 1624 L 1589 1631 L 1583 1634 L 1574 1637 L 1568 1638 L 1551 1638 L 1537 1636 L 1523 1632 L 1511 1626 L 1504 1621 L 1493 1610 L 1488 1604 L 1477 1585 L 1469 1565 L 1461 1538 L 1459 1526 L 1456 1527 L 1456 1575 L 1457 1576 L 1457 1637 L 1456 1639 L 1461 1634 L 1477 1612 L 1484 1608 L 1496 1621 L 1506 1628 L 1516 1633 L 1528 1637 L 1545 1640 L 1573 1640 L 1587 1637 L 1595 1634 L 1603 1630 L 1613 1623 L 1625 1611 L 1631 1602 L 1638 1585 L 1641 1567 L 1641 1548 L 1640 1539 L 1637 1526 L 1631 1512 L 1626 1505 L 1618 1497 L 1612 1493 L 1602 1488 L 1592 1484 L 1573 1478 L 1525 1466 L 1513 1462 L 1494 1453 L 1484 1446 L 1480 1442 L 1474 1434 L 1471 1428 L 1469 1421 L 1469 1404 L 1472 1395 L 1477 1387 L 1488 1377 L 1500 1371 L 1516 1367 L 1537 1367 L 1553 1371 L 1565 1377 L 1575 1384 L 1591 1400 L 1604 1420 L 1608 1429 L 1612 1441 L 1613 1449 L 1616 1454 L 1616 1365 L 1609 1372 L 1592 1387 L 1590 1388 L 1588 1388 L 1576 1379 L 1562 1371 L 1544 1366 L 1535 1365 L 1510 1365 L 1504 1366 Z M 1076 1363 L 1074 1364 L 1071 1371 L 1069 1373 L 1061 1390 L 1054 1402 L 1045 1391 L 1032 1379 L 1026 1375 L 1016 1370 L 1007 1367 L 996 1365 L 974 1365 L 960 1368 L 951 1371 L 937 1378 L 929 1383 L 920 1390 L 901 1409 L 894 1418 L 887 1429 L 880 1443 L 874 1460 L 871 1472 L 869 1485 L 868 1496 L 868 1521 L 870 1538 L 874 1556 L 876 1559 L 876 1562 L 880 1572 L 888 1587 L 896 1598 L 910 1612 L 919 1619 L 932 1627 L 934 1627 L 936 1629 L 955 1636 L 976 1640 L 1007 1640 L 1014 1639 L 1026 1636 L 1036 1632 L 1047 1625 L 1059 1614 L 1066 1604 L 1072 1592 L 1075 1584 L 1079 1568 L 1082 1543 L 1082 1526 L 1080 1526 L 1080 1542 L 1077 1566 L 1075 1575 L 1071 1587 L 1065 1600 L 1059 1609 L 1045 1623 L 1039 1627 L 1029 1632 L 1016 1636 L 1003 1638 L 985 1638 L 979 1637 L 970 1634 L 958 1627 L 948 1617 L 940 1605 L 935 1594 L 929 1575 L 924 1546 L 922 1515 L 922 1492 L 923 1468 L 927 1436 L 932 1416 L 937 1403 L 945 1389 L 957 1377 L 961 1374 L 967 1371 L 981 1367 L 1000 1367 L 1005 1368 L 1016 1372 L 1026 1378 L 1036 1386 L 1048 1399 L 1059 1415 L 1065 1428 L 1071 1448 L 1073 1460 L 1073 1470 L 1076 1482 Z M 493 560 L 474 591 L 463 611 L 445 648 L 429 687 L 418 720 L 412 741 L 405 770 L 397 815 L 393 851 L 391 892 L 392 1314 L 1639 1314 L 1639 872 L 1636 834 L 1630 792 L 1621 750 L 1612 718 L 1603 691 L 1590 658 L 1583 642 L 1565 606 L 1542 567 L 1526 543 L 1512 524 L 1491 498 L 1476 481 L 1460 464 L 1435 440 L 1398 409 L 1371 389 L 1350 375 L 1307 350 L 1279 336 L 1244 321 L 1217 311 L 1214 311 L 1211 309 L 1170 297 L 1166 297 L 1162 295 L 1123 287 L 1089 282 L 1056 279 L 1036 278 L 994 278 L 974 279 L 942 282 L 920 285 L 882 292 L 857 298 L 829 306 L 797 317 L 765 330 L 709 358 L 664 386 L 639 404 L 614 424 L 587 448 L 562 473 L 537 501 L 524 517 L 506 541 Z M 508 582 L 529 551 L 541 535 L 559 513 L 577 493 L 608 462 L 619 452 L 648 428 L 678 406 L 706 388 L 725 377 L 760 359 L 780 350 L 813 337 L 840 328 L 881 317 L 905 312 L 936 307 L 964 304 L 998 302 L 1032 302 L 1067 304 L 1087 306 L 1120 311 L 1166 321 L 1197 330 L 1231 342 L 1253 351 L 1285 366 L 1311 380 L 1339 397 L 1354 407 L 1384 429 L 1415 455 L 1449 488 L 1462 502 L 1488 533 L 1508 560 L 1522 581 L 1536 604 L 1547 624 L 1548 628 L 1558 646 L 1570 673 L 1579 696 L 1591 732 L 1603 780 L 1609 814 L 1613 847 L 1615 878 L 1614 1289 L 416 1288 L 416 869 L 420 825 L 424 799 L 430 769 L 440 731 L 452 695 L 464 665 L 475 641 L 489 614 Z M 1510 1161 L 1508 1154 L 1505 1148 L 1497 1137 L 1489 1129 L 1480 1122 L 1457 1108 L 1436 1098 L 1421 1092 L 1392 1082 L 1364 1074 L 1331 1066 L 1322 1065 L 1317 1063 L 1313 1063 L 1314 1073 L 1319 1094 L 1328 1123 L 1329 1128 L 1329 1137 L 1328 1139 L 1324 1143 L 1314 1143 L 1293 1136 L 1291 1134 L 1289 1134 L 1277 1126 L 1266 1115 L 1260 1106 L 1256 1098 L 1251 1080 L 1250 1072 L 1251 1052 L 1248 1052 L 1247 1051 L 1240 1051 L 1224 1048 L 1177 1043 L 1177 1053 L 1180 1072 L 1184 1088 L 1193 1117 L 1194 1122 L 1194 1132 L 1190 1137 L 1187 1138 L 1182 1138 L 1170 1135 L 1162 1132 L 1150 1126 L 1144 1122 L 1134 1113 L 1126 1102 L 1121 1092 L 1118 1083 L 1116 1073 L 1115 1064 L 1115 1049 L 1117 1039 L 1109 1039 L 1108 1038 L 1046 1036 L 1044 1037 L 1027 1036 L 1027 1049 L 1031 1072 L 1034 1084 L 1042 1109 L 1044 1118 L 1044 1128 L 1041 1132 L 1036 1134 L 1028 1133 L 1012 1128 L 1000 1122 L 994 1118 L 980 1104 L 976 1098 L 971 1088 L 967 1075 L 965 1062 L 966 1037 L 945 1037 L 924 1039 L 922 1038 L 904 1039 L 903 1040 L 895 1040 L 895 1053 L 898 1071 L 902 1087 L 910 1112 L 912 1122 L 912 1130 L 911 1132 L 907 1136 L 897 1136 L 889 1134 L 878 1130 L 861 1120 L 848 1107 L 844 1101 L 839 1091 L 835 1078 L 833 1065 L 833 1045 L 790 1050 L 784 1052 L 777 1052 L 770 1054 L 764 1054 L 764 1068 L 768 1092 L 771 1104 L 777 1122 L 781 1138 L 781 1148 L 780 1150 L 776 1154 L 767 1154 L 750 1149 L 736 1142 L 728 1136 L 719 1127 L 712 1117 L 706 1103 L 703 1090 L 702 1081 L 703 1066 L 700 1066 L 699 1067 L 695 1068 L 691 1068 L 663 1075 L 629 1085 L 615 1090 L 588 1101 L 568 1111 L 558 1117 L 543 1128 L 531 1140 L 528 1144 L 524 1151 L 521 1160 L 521 1174 L 526 1185 L 531 1192 L 539 1200 L 547 1206 L 567 1216 L 585 1221 L 598 1223 L 1437 1223 L 1453 1219 L 1461 1216 L 1478 1207 L 1494 1195 L 1503 1185 L 1509 1175 L 1510 1172 Z M 524 754 L 516 784 L 511 808 L 506 841 L 505 858 L 503 861 L 502 890 L 503 1049 L 504 1051 L 510 1054 L 519 1054 L 524 1052 L 527 1048 L 527 878 L 530 843 L 535 811 L 543 776 L 556 735 L 565 712 L 575 690 L 592 658 L 603 640 L 618 618 L 627 607 L 628 1003 L 632 1008 L 640 1010 L 645 1009 L 649 1007 L 652 1003 L 652 576 L 680 547 L 699 530 L 728 507 L 752 491 L 753 893 L 756 897 L 760 899 L 766 900 L 774 897 L 777 893 L 778 475 L 785 472 L 787 470 L 811 458 L 842 445 L 874 434 L 878 435 L 878 803 L 879 805 L 883 809 L 886 810 L 895 810 L 900 807 L 902 804 L 902 428 L 904 426 L 946 418 L 985 414 L 1003 415 L 1003 781 L 1004 784 L 1008 788 L 1014 790 L 1021 789 L 1023 788 L 1027 784 L 1028 414 L 1045 414 L 1058 415 L 1098 420 L 1118 424 L 1128 427 L 1128 802 L 1129 805 L 1132 808 L 1136 810 L 1145 810 L 1149 808 L 1151 806 L 1153 802 L 1152 698 L 1153 690 L 1152 688 L 1152 579 L 1153 569 L 1152 567 L 1152 435 L 1156 434 L 1181 442 L 1211 454 L 1253 475 L 1253 835 L 1254 890 L 1255 892 L 1257 894 L 1261 896 L 1270 896 L 1274 894 L 1277 891 L 1278 888 L 1279 491 L 1307 510 L 1332 530 L 1355 551 L 1369 565 L 1378 575 L 1379 577 L 1379 1004 L 1383 1008 L 1385 1009 L 1396 1009 L 1400 1007 L 1403 1002 L 1404 607 L 1410 614 L 1424 634 L 1445 669 L 1461 701 L 1476 738 L 1487 773 L 1493 797 L 1498 823 L 1503 865 L 1504 883 L 1504 1049 L 1507 1052 L 1512 1054 L 1521 1054 L 1525 1052 L 1528 1049 L 1528 862 L 1526 860 L 1525 842 L 1521 814 L 1515 784 L 1504 745 L 1496 722 L 1488 702 L 1478 680 L 1470 664 L 1456 639 L 1433 604 L 1418 584 L 1404 567 L 1376 537 L 1360 522 L 1325 493 L 1289 468 L 1260 451 L 1228 435 L 1212 428 L 1186 418 L 1165 411 L 1158 410 L 1152 408 L 1147 404 L 1143 403 L 1136 404 L 1122 400 L 1088 394 L 1049 390 L 1028 389 L 1003 389 L 981 390 L 943 394 L 909 400 L 894 404 L 887 403 L 884 404 L 879 408 L 863 412 L 842 419 L 819 428 L 788 442 L 760 457 L 745 466 L 721 482 L 693 503 L 659 533 L 648 544 L 627 567 L 609 589 L 583 626 L 563 660 L 549 688 L 542 704 L 533 727 Z" fill="#ffffff" fill-rule="evenodd" stroke="none"/>
</svg>